<svg xmlns="http://www.w3.org/2000/svg" width="25" height="25" viewBox="0 0 25 25" fill="none"><g clip-path="url(#clip0_1_66)"><path d="M8.86251 2.765C8.66001 2.765 8.47501 2.6275 8.42501 2.42L8.17001 1.3525C8.11251 1.11 8.26001 0.869997 8.50251 0.812497C8.74501 0.754997 8.98501 0.902497 9.04251 1.145L9.29751 2.2125C9.35501 2.455 9.20751 2.695 8.96501 2.7525C8.93001 2.76 8.89501 2.765 8.86001 2.765H8.86251Z" fill="#515151"></path><path d="M13.0175 20.145C12.815 20.145 12.63 20.0075 12.58 19.8L10.3375 10.4175C10.28 10.175 10.4275 9.935 10.67 9.8775C10.9125 9.82 11.1525 9.97 11.21 10.21L13.4525 19.5925C13.51 19.835 13.3625 20.075 13.12 20.1325C13.085 20.14 13.05 20.145 13.015 20.145H13.0175Z" fill="#515151"></path><path d="M13.9875 24.2C13.785 24.2 13.6 24.0625 13.55 23.855L13.215 22.455C13.1575 22.2125 13.305 21.9725 13.5475 21.915C13.79 21.8575 14.03 22.0075 14.0875 22.2475L14.4225 23.6475C14.48 23.89 14.3325 24.13 14.09 24.1875C14.055 24.195 14.02 24.2 13.985 24.2H13.9875Z" fill="#515151"></path><path d="M1.4425 11.52C1.24 11.52 1.055 11.3825 1.005 11.175C0.464995 8.915 1.485 6.64 3.955 4.595C5.8125 3.0575 8.035 2.0525 8.75749 1.88C10.4225 1.48 18.63 1.4575 19.875 6.6625C19.9325 6.905 19.785 7.145 19.5425 7.2025L1.5475 11.5075C1.5125 11.515 1.4775 11.52 1.4425 11.52ZM10.605 2.645C9.77499 2.645 9.165 2.705 8.96749 2.7525C8.39749 2.89 6.31 3.8125 4.5275 5.285C3.0975 6.47 1.5125 8.3125 1.7975 10.52L18.875 6.4375C17.74 3.21 13.145 2.6425 10.605 2.6425V2.645Z" fill="#515151"></path><path d="M13.0175 20.145C12.815 20.145 12.63 20.0075 12.58 19.8L10.3375 10.4175C10.28 10.175 10.4275 9.935 10.67 9.8775C10.9125 9.82 11.1525 9.97 11.21 10.21L13.4525 19.5925C13.51 19.835 13.3625 20.075 13.12 20.1325C13.085 20.14 13.05 20.145 13.015 20.145H13.0175Z" fill="#515151"></path><path d="M1.4425 11.52C1.24 11.52 1.055 11.3825 1.005 11.175C0.464995 8.915 1.485 6.64 3.955 4.595C5.8125 3.0575 8.035 2.0525 8.75749 1.88C10.4225 1.48 18.63 1.4575 19.875 6.6625C19.9325 6.905 19.785 7.145 19.5425 7.2025L1.5475 11.5075C1.5125 11.515 1.4775 11.52 1.4425 11.52ZM10.605 2.645C9.77499 2.645 9.165 2.705 8.96749 2.7525C8.39749 2.89 6.31 3.8125 4.5275 5.285C3.0975 6.47 1.5125 8.3125 1.7975 10.52L18.875 6.4375C17.74 3.21 13.145 2.6425 10.605 2.6425V2.645Z" fill="#515151"></path><path d="M6.93001 9.88C6.81501 9.88 6.70751 9.8 6.68001 9.6825C5.99001 6.7925 6.51001 4.3975 8.22751 2.56C8.18251 2.43 8.25001 2.29 8.37751 2.24C8.61751 2.145 8.80751 2.0725 8.93251 2.265C9.05501 2.4525 8.91251 2.595 8.76251 2.7475C7.04251 4.4725 6.51001 6.765 7.18001 9.565C7.21251 9.7025 7.12751 9.84 6.99001 9.875C6.97001 9.88 6.95001 9.8825 6.93001 9.8825V9.88Z" fill="#515151"></path><path d="M13.89 8.21499C13.775 8.21499 13.67 8.13499 13.64 8.01749C12.97 5.21749 11.4575 3.41249 9.14499 2.65499C8.94249 2.58749 8.74999 2.52499 8.77499 2.30249C8.79999 2.07499 9.00249 2.05499 9.25999 2.02999C9.39999 2.01749 9.51999 2.11499 9.53999 2.24749C11.9025 3.10749 13.45 5.00749 14.1425 7.89999C14.175 8.03749 14.09 8.17499 13.9525 8.20999C13.9325 8.21499 13.9125 8.21749 13.8925 8.21749L13.89 8.21499Z" fill="#515151"></path><path d="M2.75748 12.2275C2.43998 12.2275 2.12998 12.1025 1.89248 11.8675C1.70248 11.6775 1.50748 11.4925 1.30248 11.3125C1.23748 11.255 1.20498 11.17 1.21748 11.085C1.22998 11 1.28248 10.925 1.35998 10.89C3.20498 10.005 5.29248 9.585 7.38998 9.675C7.47248 9.6775 7.54748 9.72 7.59248 9.79C7.63748 9.8575 7.64748 9.945 7.61998 10.02C7.52748 10.2725 7.43748 10.525 7.34748 10.7775C7.18748 11.22 6.75498 11.525 6.24248 11.55C5.18498 11.605 4.14998 11.8075 3.16748 12.1575C3.03248 12.205 2.89248 12.23 2.75498 12.23L2.75748 12.2275ZM1.93248 11.19C2.04248 11.2925 2.14998 11.3975 2.25498 11.505C2.45248 11.7 2.73748 11.765 2.99748 11.6725C4.02498 11.3075 5.10748 11.0925 6.21748 11.0375C6.51748 11.0225 6.77748 10.8475 6.86498 10.605C6.91498 10.4625 6.96498 10.32 7.01748 10.1775C5.25498 10.1525 3.50998 10.4975 1.93248 11.1925V11.19Z" fill="#515151"></path><path d="M8.935 10.75C8.6175 10.75 8.3075 10.625 8.07 10.39C7.88 10.2 7.685 10.015 7.48 9.83499C7.415 9.77749 7.3825 9.69249 7.395 9.60749C7.4075 9.52249 7.46 9.44749 7.5375 9.41249C9.3825 8.52749 11.47 8.10999 13.5675 8.19749C13.65 8.19999 13.725 8.24249 13.77 8.31249C13.815 8.38249 13.825 8.46749 13.7975 8.54249C13.705 8.79499 13.615 9.04749 13.525 9.29999C13.365 9.74249 12.9325 10.0475 12.42 10.0725C11.36 10.1275 10.3275 10.33 9.345 10.68C9.21 10.7275 9.07 10.75 8.9325 10.75H8.935ZM8.1075 9.71249C8.2175 9.81499 8.325 9.91999 8.4325 10.0275C8.6275 10.2225 8.915 10.2875 9.175 10.195C10.2025 9.82999 11.285 9.61499 12.395 9.55999C12.7 9.54499 12.9525 9.37499 13.0425 9.12749C13.0925 8.98499 13.1425 8.84249 13.195 8.69999C11.435 8.67249 9.6875 9.01999 8.11 9.71499L8.1075 9.71249Z" fill="#515151"></path><path d="M15.115 9.2725C14.7975 9.2725 14.485 9.1475 14.25 8.9125C14.06 8.7225 13.865 8.5375 13.66 8.3575C13.595 8.3 13.5625 8.215 13.575 8.13C13.5875 8.045 13.64 7.97 13.7175 7.9325C15.5625 7.0475 17.65 6.63 19.7475 6.7175C19.83 6.72 19.905 6.7625 19.95 6.8325C19.995 6.9 20.005 6.9875 19.9775 7.0625C19.885 7.315 19.795 7.5675 19.705 7.82C19.545 8.2625 19.1125 8.5675 18.6 8.5925C17.54 8.6475 16.5075 8.85 15.525 9.2C15.39 9.2475 15.25 9.27 15.1125 9.27L15.115 9.2725ZM14.29 8.235C14.4 8.3375 14.5075 8.4425 14.6125 8.55C14.81 8.745 15.095 8.81 15.355 8.7175C16.3825 8.3525 17.465 8.1375 18.5725 8.0825C18.8725 8.0675 19.1325 7.8925 19.22 7.65C19.27 7.5075 19.32 7.365 19.3725 7.2225C17.6125 7.195 15.865 7.545 14.2875 8.2375L14.29 8.235Z" fill="#515151"></path><path d="M18.47 21.3H17.2425C17.09 21.3 16.9475 21.2225 16.865 21.0925C16.7825 20.9625 16.7725 20.8025 16.835 20.6625L19.2975 15.335C19.37 15.175 19.53 15.075 19.705 15.075H20.9325C21.085 15.075 21.2275 15.1525 21.31 15.2825C21.3925 15.4125 21.4025 15.5725 21.34 15.7125L18.8775 21.04C18.805 21.2 18.645 21.3 18.47 21.3ZM17.945 20.4025H18.185L20.2325 15.9725H19.9925L17.945 20.4025Z" fill="#515151"></path><path d="M17.2425 21.3H4.06249C3.81499 21.3 3.61249 21.1 3.61249 20.85V19.7775C3.61249 19.53 3.81249 19.3275 4.06249 19.3275H17.7375C17.89 19.3275 18.0325 19.405 18.115 19.535C18.1975 19.665 18.2075 19.825 18.145 19.965L17.65 21.0375C17.5775 21.1975 17.4175 21.2975 17.2425 21.2975V21.3ZM4.51249 20.4025H16.955L17.035 20.2275H4.51249V20.4025Z" fill="#515151"></path><path d="M23.685 22.615H3.28249C3.03499 22.615 2.83249 22.415 2.83249 22.165V20.8525C2.83249 20.605 3.03249 20.4025 3.28249 20.4025H23.6875C23.935 20.4025 24.1375 20.6025 24.1375 20.8525V22.165C24.1375 22.4125 23.9375 22.615 23.6875 22.615H23.685ZM3.72999 21.7175H23.2375V21.3025H3.72999V21.7175Z" fill="#515151"></path><path d="M6.34 24.195H4.76C4.5125 24.195 4.31 23.995 4.31 23.745V22.165C4.31 21.9175 4.51 21.715 4.76 21.715H6.34C6.5875 21.715 6.79 21.915 6.79 22.165V23.745C6.79 23.9925 6.59 24.195 6.34 24.195ZM5.2075 23.2975H5.89V22.615H5.2075V23.2975Z" fill="#515151"></path><path d="M22.2075 24.195H20.6275C20.38 24.195 20.1775 23.995 20.1775 23.745V22.165C20.1775 21.9175 20.3775 21.715 20.6275 21.715H22.2075C22.455 21.715 22.6575 21.915 22.6575 22.165V23.745C22.6575 23.9925 22.4575 24.195 22.2075 24.195ZM21.075 23.2975H21.7575V22.615H21.075V23.2975Z" fill="#515151"></path></g><defs><clipPath id="clip0_1_66"><rect width="25" height="25" fill="white"></rect></clipPath></defs></svg>