<svg xmlns="http://www.w3.org/2000/svg" width="25" height="25" viewBox="0 0 25 25" fill="none"><path d="M2.09502 14.05C2.03002 14.05 1.96502 14.025 1.91752 13.975C1.86752 13.925 1.84252 13.8575 1.84502 13.7875C1.85252 13.65 1.97502 13.54 2.10752 13.5475C2.11502 13.5475 2.12252 13.5475 2.13002 13.5475L3.18502 13.4975C3.35502 13.47 3.51752 13.175 3.61752 12.9175C3.36002 12.9325 2.95752 12.9725 2.61002 13.015C2.47502 13.0325 2.35002 12.935 2.33252 12.8C2.31502 12.6625 2.41252 12.54 2.54752 12.5225C3.94502 12.345 4.03252 12.4275 4.11502 12.5075C4.17002 12.56 4.20252 12.6425 4.19502 12.7175C4.16252 12.87 3.90502 13.8875 3.23502 13.9925L2.10502 14.0475C2.10502 14.0475 2.09752 14.0475 2.09252 14.0475L2.09502 14.05Z" fill="#515151"></path><path d="M16.8275 16.22H8.46002C8.22002 16.22 8.02502 16.025 8.02502 15.785C8.02502 15.545 8.22002 15.35 8.46002 15.35H16.8275C17.0675 15.35 17.2625 15.545 17.2625 15.785C17.2625 16.025 17.0675 16.22 16.8275 16.22Z" fill="#515151"></path><path d="M23.525 16.22H20.2775C20.0375 16.22 19.8425 16.025 19.8425 15.785C19.8425 15.545 20.0375 15.35 20.2775 15.35H23.1175C23.1325 14.52 22.9575 12.61 21.0675 12.245C20.8625 12.205 20.77 12.07 20.5875 11.8C20.0725 11.0475 18.51 8.75499 15.21 8.51249C15.195 8.51249 12.9 8.38749 11.5525 8.51249C10.595 8.51249 9.71502 8.87499 9.09752 9.49999L6.99503 11.6325C6.92252 11.705 6.82753 11.75 6.72753 11.76C4.18753 12.005 2.61503 12.975 2.46503 13.1125C2.12503 13.425 1.67003 14.3925 1.99003 15.3475H4.99753C5.23752 15.3475 5.43253 15.5425 5.43253 15.7825C5.43253 16.0225 5.23752 16.2175 4.99753 16.2175H1.69503C1.52753 16.2175 1.37503 16.1225 1.30253 15.9725C0.625025 14.57 1.24003 13.055 1.87003 12.4725C2.13503 12.23 3.77003 11.2025 6.48253 10.9075L8.47503 8.88499C9.25503 8.09249 10.3625 7.63999 11.51 7.63999C12.88 7.51249 15.1675 7.63499 15.265 7.63999C18.99 7.91499 20.7325 10.4675 21.305 11.3075C21.335 11.35 21.36 11.3875 21.38 11.42C23.7875 11.985 24.12 14.5425 23.955 15.8375C23.9275 16.055 23.7425 16.2175 23.5225 16.2175L23.525 16.22Z" fill="#515151"></path><path d="M12.885 11.97H8.16501C8.06501 11.97 7.97501 11.91 7.93501 11.8175C7.89501 11.725 7.91751 11.6175 7.98751 11.5475L9.65251 9.8525C10.18 9.34 10.87 9.0475 11.5525 9.0475H13.23C13.3025 9.0475 13.37 9.0775 13.4175 9.1325C13.465 9.1875 13.485 9.26 13.475 9.33L13.1275 11.7575C13.11 11.88 13.005 11.97 12.8825 11.97H12.885ZM8.75751 11.4725H12.6675L12.945 9.5425H11.5525C11 9.5425 10.435 9.7825 10.0025 10.205L8.75501 11.4725H8.75751Z" fill="#515151"></path><path d="M18.48 11.9725C18.4175 11.9725 18.35 11.9725 18.2775 11.9725H14.2575C14.1875 11.9725 14.1225 11.9425 14.075 11.8925C14.0275 11.8425 14.005 11.775 14.01 11.705L14.1825 9.2775C14.1925 9.1475 14.3 9.0475 14.43 9.0475C16.32 9.055 17.7775 9.6075 18.7625 10.6875C19.215 11.1525 19.4275 11.44 19.315 11.7025C19.21 11.945 18.9325 11.975 18.48 11.975V11.9725ZM14.525 11.4725H18.2825C18.4625 11.475 18.66 11.4775 18.7875 11.4675C18.73 11.3875 18.6175 11.25 18.4 11.0275C17.5475 10.0925 16.2925 9.595 14.66 9.5475L14.5225 11.475L14.525 11.4725Z" fill="#515151"></path><path d="M4.93003 14.78H1.53003C1.46253 14.78 1.40503 14.725 1.40503 14.655C1.40503 14.585 1.46003 14.53 1.53003 14.53H4.93003C4.99753 14.53 5.05503 14.585 5.05503 14.655C5.05503 14.725 5.00003 14.78 4.93003 14.78Z" fill="#515151"></path><path d="M16.7525 14.78H8.52753C8.46003 14.78 8.40253 14.725 8.40253 14.655C8.40253 14.585 8.45753 14.53 8.52753 14.53H16.7525C16.82 14.53 16.8775 14.585 16.8775 14.655C16.8775 14.725 16.8225 14.78 16.7525 14.78Z" fill="#515151"></path><path d="M23.635 14.78H20.2825C20.215 14.78 20.1575 14.725 20.1575 14.655C20.1575 14.585 20.2125 14.53 20.2825 14.53H23.635C23.7025 14.53 23.76 14.585 23.76 14.655C23.76 14.725 23.705 14.78 23.635 14.78Z" fill="#515151"></path><path d="M6.72999 17.415C5.56499 17.415 4.61749 16.4675 4.61749 15.3025C4.61749 14.1375 5.56499 13.19 6.72999 13.19C7.89499 13.19 8.84499 14.1375 8.84499 15.3025C8.84499 16.4675 7.89749 17.415 6.72999 17.415ZM6.72999 14.0575C6.04499 14.0575 5.48499 14.615 5.48499 15.3025C5.48499 15.99 6.04249 16.545 6.72999 16.545C7.41749 16.545 7.97499 15.9875 7.97499 15.3025C7.97499 14.6175 7.41749 14.0575 6.72999 14.0575Z" fill="#515151"></path><path d="M6.73002 14.84C6.47502 14.84 6.27002 15.0475 6.27002 15.3C6.27002 15.5525 6.47752 15.76 6.73002 15.76C6.98252 15.76 7.19002 15.5525 7.19002 15.3C7.19002 15.0475 6.98252 14.84 6.73002 14.84Z" fill="#515151"></path><path d="M18.56 17.415C17.395 17.415 16.4475 16.4675 16.4475 15.3025C16.4475 14.1375 17.395 13.19 18.56 13.19C19.725 13.19 20.6725 14.1375 20.6725 15.3025C20.6725 16.4675 19.725 17.415 18.56 17.415ZM18.56 14.0575C17.875 14.0575 17.315 14.615 17.315 15.3025C17.315 15.99 17.8725 16.545 18.56 16.545C19.2475 16.545 19.805 15.9875 19.805 15.3025C19.805 14.6175 19.2475 14.0575 18.56 14.0575Z" fill="#515151"></path><path d="M18.56 14.84C18.305 14.84 18.1 15.0475 18.1 15.3C18.1 15.5525 18.3075 15.76 18.56 15.76C18.8125 15.76 19.02 15.5525 19.02 15.3C19.02 15.0475 18.8125 14.84 18.56 14.84Z" fill="#515151"></path></svg>