<svg version="1.1" id="Layer_1" xmlns="http://www.w3.org/2000/svg" xmlns:xlink="http://www.w3.org/1999/xlink" x="0px" y="0px" viewBox="0 0 30 30" style="enable-background:new 0 0 512 512;" xml:space="preserve" width="30" height="30"><path style="fill:#FAB446;" d="M27.753 5.172H2.247C1.006 5.172 0 6.178 0 7.419v4.305h30V7.419c0 -1.241 -1.006 -2.247 -2.247 -2.247"/><path style="fill:#73AF00;" d="M0 22.581c0 1.241 1.006 2.247 2.247 2.247h25.506c1.241 0 2.247 -1.006 2.247 -2.247V18.276H0z"/><path y="200.09" style="fill:#F5F5F5;" width="512" height="111.81" d="M0 11.724h30v6.551H0z"/><g><path style="fill:#41479B;" d="M15 17.78c-1.533 0 -2.78 -1.247 -2.78 -2.78s1.247 -2.78 2.78 -2.78 2.78 1.247 2.78 2.78 -1.247 2.78 -2.78 2.78m0 -5.043c-1.248 0 -2.263 1.015 -2.263 2.263s1.015 2.263 2.263 2.263 2.263 -1.015 2.263 -2.263 -1.015 -2.263 -2.263 -2.263"/><path style="fill:#41479B;" cx="256" cy="256" r="5.379" d="M15.315 15a0.315 0.315 0 0 1 -0.315 0.315 0.315 0.315 0 0 1 -0.315 -0.315 0.315 0.315 0 0 1 0.63 0"/><path style="fill:#41479B;" points="256,256.807 242.33,258.187 212.966,256.807 212.966,255.193 242.33,253.813 256,255.193 	
		" d="m15 15.047 -0.801 0.081 -1.721 -0.081v-0.095l1.721 -0.081L15 14.953Z"/><path style="fill:#41479B;" points="256,256.807 269.67,258.187 299.034,256.807 299.034,255.193 269.67,253.813 256,255.193 	
		" d="m15 15.047 0.801 0.081 1.721 -0.081v-0.095l-1.721 -0.081L15 14.953Z"/><path style="fill:#41479B;" points="255.193,256 253.813,242.33 255.193,212.966 256.807,212.966 258.187,242.33 256.807,256 	
		" d="m14.953 15 -0.081 -0.801 0.081 -1.721h0.095l0.081 1.721L15.047 15Z"/><path style="fill:#41479B;" points="255.193,256 253.813,269.67 255.193,299.034 256.807,299.034 258.187,269.67 256.807,256 	
		" d="m14.953 15 -0.081 0.801 0.081 1.721h0.095l0.081 -1.721L15.047 15Z"/><path style="fill:#41479B;" points="255.43,256.57 244.788,247.881 225,226.141 226.141,225 247.881,244.788 256.57,255.43 	" d="m14.967 15.033 -0.624 -0.509 -1.159 -1.274 0.067 -0.067 1.274 1.159 0.509 0.624Z"/><path style="fill:#41479B;" points="255.43,256.57 264.119,267.212 285.859,287 287,285.859 267.212,264.119 256.57,255.43 	" d="m14.967 15.033 0.509 0.624 1.274 1.159 0.067 -0.067 -1.159 -1.274 -0.624 -0.509Z"/><path style="fill:#41479B;" points="255.43,255.43 264.119,244.788 285.859,225 287,226.141 267.212,247.881 256.57,256.57 	" d="m14.967 14.967 0.509 -0.624 1.274 -1.159 0.067 0.067 -1.159 1.274 -0.624 0.509Z"/><path style="fill:#41479B;" points="255.43,255.43 244.788,264.119 225,285.859 226.141,287 247.881,267.212 256.57,256.57 	" d="m14.967 14.967 -0.624 0.509 -1.159 1.274 0.067 0.067 1.274 -1.159 0.509 -0.624Z"/><path style="fill:#41479B;" points="256.309,256.746 244.207,263.252 216.551,273.214 215.933,271.723 242.534,259.211 
		255.691,255.254 	" d="m15.018 15.044 -0.709 0.381 -1.62 0.584 -0.036 -0.087 1.559 -0.733 0.771 -0.232Z"/><path style="fill:#41479B;" points="256.309,256.746 269.466,252.789 296.067,240.277 295.449,238.786 267.793,248.748 
		255.691,255.254 	" d="m15.018 15.044 0.771 -0.232 1.559 -0.733 -0.036 -0.087 -1.62 0.584 -0.709 0.381Z"/><path style="fill:#41479B;" points="255.254,256.309 248.748,244.207 238.786,216.551 240.277,215.933 252.789,242.534 
		256.746,255.691 	" d="m14.956 15.018 -0.381 -0.709 -0.584 -1.62 0.087 -0.036 0.733 1.559 0.232 0.771Z"/><path style="fill:#41479B;" points="255.254,256.309 259.211,269.466 271.723,296.067 273.214,295.449 263.252,267.793 
		256.746,255.691 	" d="m14.956 15.018 0.232 0.771 0.733 1.559 0.087 -0.036 -0.584 -1.62 -0.381 -0.709Z"/><path style="fill:#41479B;" points="255.691,256.746 242.534,252.789 215.933,240.277 216.551,238.786 244.207,248.748 
		256.309,255.254 	" d="m14.982 15.044 -0.771 -0.232 -1.559 -0.733 0.036 -0.087 1.62 0.584 0.709 0.381Z"/><path style="fill:#41479B;" points="255.691,256.746 267.793,263.252 295.449,273.214 296.067,271.723 269.466,259.211 
		256.309,255.254 	" d="m14.982 15.044 0.709 0.381 1.62 0.584 0.036 -0.087 -1.559 -0.733 -0.771 -0.232Z"/><path style="fill:#41479B;" points="255.254,255.691 259.211,242.534 271.723,215.933 273.214,216.551 263.252,244.207 
		256.746,256.309 	" d="m14.956 14.982 0.232 -0.771 0.733 -1.559 0.087 0.036 -0.584 1.62 -0.381 0.709Z"/><path style="fill:#41479B;" points="255.254,255.691 248.748,267.793 238.786,295.449 240.277,296.067 252.789,269.466 
		256.746,256.309 	" d="m14.956 14.982 -0.381 0.709 -0.584 1.62 0.087 0.036 0.733 -1.559 0.232 -0.771Z"/></g><path style="fill:#F5F5F5;" cx="256" cy="256" r="7.256" d="M15.425 15a0.425 0.425 0 0 1 -0.425 0.425 0.425 0.425 0 0 1 -0.425 -0.425 0.425 0.425 0 0 1 0.85 0"/><path style="fill:#41479B;" cx="256" cy="256" r="4.351" d="M15.255 15a0.255 0.255 0 0 1 -0.255 0.255 0.255 0.255 0 0 1 -0.255 -0.255 0.255 0.255 0 0 1 0.51 0"/></svg>