<svg xmlns="http://www.w3.org/2000/svg" width="20" height="20" viewBox="0 0 16 16" fill="none"><path d="M12.7538 10.1683L11.0772 9.9768C10.8801 9.95363 10.6802 9.97547 10.4927 10.0407C10.3052 10.1059 10.1349 10.2128 9.99464 10.3533L8.78006 11.5685C6.90617 10.615 5.38306 9.09099 4.43002 7.21606L5.6512 5.9942C5.93505 5.7102 6.07367 5.30732 6.02746 4.91104L5.83603 3.24667C5.80038 2.92436 5.64748 2.62643 5.40646 2.40963C5.16544 2.19283 4.85314 2.07232 4.52904 2.07104H3.38707C2.64116 2.07104 2.02067 2.69188 2.06688 3.43821C2.41673 9.07857 6.92519 13.5829 12.5558 13.933C13.3017 13.9792 13.9222 13.3584 13.9222 12.6121V11.4694C13.9288 10.809 13.4205 10.241 12.7538 10.1683Z" fill="var(--primary-color, #f37002)"></path></svg>